<svg xmlns="http://www.w3.org/2000/svg" data-name="Layer 1" width="570.22183" height="670.69599" viewBox="0 0 570.22183 670.69599" xmlns:xlink="http://www.w3.org/1999/xlink"><path d="M876.61092,675.652h-380a8.50981,8.50981,0,0,1-8.5-8.5v-544a8.5095,8.5095,0,0,1,8.5-8.5h380a8.50951,8.50951,0,0,1,8.5,8.5v544A8.50982,8.50982,0,0,1,876.61092,675.652Z" transform="translate(-314.88908 -114.65201)" fill="#3f3d56"/><path d="M868.61092,667.652h-364a8.50981,8.50981,0,0,1-8.5-8.5v-528a8.5095,8.5095,0,0,1,8.5-8.5h364a8.50951,8.50951,0,0,1,8.5,8.5v528A8.50982,8.50982,0,0,1,868.61092,667.652Z" transform="translate(-314.88908 -114.65201)" fill="#fff"/><polygon points="142.482 334.364 144.356 351.746 143.253 374.538 193.738 368.54 198.482 334.364 192.438 334.424 142.482 334.364" fill="#ffb6b6"/><path d="M517.61092,395.152l-15.6085-5.77271-6.67-9.68594-23.99252-2.39925-14.79926,9.48075-12.40673,6.31775.21253,32.98785L458.61092,485.152l51-2,6.713-42.12345s15.59514-20.94623-1.19962-32.94249Z" transform="translate(-314.88908 -114.65201)" fill="#ccc"/><polygon points="116.296 649.938 127.334 649.938 132.586 607.364 116.296 607.364 116.296 649.938" fill="#ffb6b6"/><path d="M427.58288,757.0301l17.634-1.05251v7.55516l16.76509,11.57857a4.71924,4.71924,0,0,1-2.68162,8.60273H438.30642l-3.61861-7.4732-1.41289,7.4732h-7.91553Z" transform="translate(-314.88908 -114.65201)" fill="#2f2e41"/><polygon points="178.296 649.938 189.334 649.938 194.586 607.364 178.296 607.364 178.296 649.938" fill="#ffb6b6"/><path d="M489.58288,757.0301l17.634-1.05251v7.55516l16.76509,11.57857a4.71924,4.71924,0,0,1-2.68162,8.60273H500.30642l-3.61861-7.4732-1.41289,7.4732h-7.91553Z" transform="translate(-314.88908 -114.65201)" fill="#2f2e41"/><path d="M426.42278,727.87634h.12l2.12275-69.22333a18.10108,18.10108,0,0,1,.2375-17.1052l.30391-.55014-.788-3.65272a23.26659,23.26659,0,0,1,1.32959-14.00271l1.98032-64.57252c-7.07488-45.85118,26.64191-75.75358,26.64191-75.75358H508.879l10.84353,37.2558c7.16852,69.84052,5.8678,137.898-5.50763,203.83417l.31012.15682c1.11666.38546,1.59558,1.93234,1.07,3.45519s-1.85694,2.44491-2.97359,2.05946l-26.67414-.92778c-1.11665-.38536-1.59575-1.93234-1.07-3.45519.52557-1.52285,1.85694-2.44482,2.9736-2.05945l1.81367.91734-3.86793-66.79789.42925-12.20106-.88432-13.84185-4.08866-62.26057-15.47616,76.563L449.96859,728.6468a2.908,2.908,0,0,1-1.96092,5.0635H426.42278a2.917,2.917,0,0,1,0-5.834Z" transform="translate(-314.88908 -114.65201)" fill="black"/><path d="M421.17168,531.76014a9.15747,9.15747,0,0,1,.982-14.00749l13.4572-82.60064,15.78254,5.5529-15.99258,79.57037a9.20709,9.20709,0,0,1-14.2292,11.48486Z" transform="translate(-314.88908 -114.65201)" fill="#ffb6b6"/><path d="M446.25629,393.01907s-4.52689-1.706-6.16987,8.41106c-1.31532,8.09948-14.15648,56.98834-12.94154,68.31593a7.194,7.194,0,0,0-4.78934,7.406l23.67831.12117c3.6255-3.95447,4.09577-8.72533,2.34494-9.89783l3.276-14.454L467.08238,406.289l-17.53194-12.09491Z" transform="translate(-314.88908 -114.65201)" fill="#ccc"/><path d="M530.18419,535.27655a9.15743,9.15743,0,0,0,.227-14.04l-4.80022-83.0845-17.701,3.80645,9.08614,80.65139a9.20709,9.20709,0,0,0,13.18814,12.6667Z" transform="translate(-314.88908 -114.65201)" fill="#ffb6b6"/><path d="M517.13144,394.89155s4.65691-1.31012,5.4232,8.91079c.61348,8.18262,9.20007,57.99514,7.01488,69.17616a7.194,7.194,0,0,1,4.13429,7.7906l-23.60091-1.91682c-3.27177-4.25177-3.32975-9.04541-1.48452-10.0629l-2.02-14.68227L495.2407,406.32019l18.5077-10.5414Z" transform="translate(-314.88908 -114.65201)" fill="#ccc"/><circle cx="157.92013" cy="237.06195" r="23.87576" fill="#ffb8b8"/><path d="M425.35848,401.89139q-7.57867-2.6859-15.15737-5.38157a15.25778,15.25778,0,0,1,3.28123-3.86194c4.81048-4.01685,11.45032-4.74278,17.55782-6.09782,6.11719-1.35509,12.757-4.133,14.993-9.97914,2.32294-6.07849-1.04536-12.64088-3.00055-18.83552-2.7392-8.64342-2.68113-18.2935.98728-26.5788,3.66835-8.2853,11.12126-15.00259,19.968-16.9771,8.84664-1.96488,18.84515,1.23889,24.28479,8.47889a14.97418,14.97418,0,0,1,18.02246,8.34337c1.268,3.17471,1.30671,6.998-.58072,9.8533s-5.9236,4.3169-8.96284,2.72951l1.7616-4.47173c-5.44933,1.84868-8.99186,11.702-8.25629,17.41267.72593,5.701,4.05554,10.69538,7.43359,15.351,3.378,4.65564,6.97858,9.35966,8.43045,14.92514,2.09071,8.00462-.73562,16.7545-5.9623,23.17174-5.22673,6.41724-12.5925,10.77283-20.21963,13.9766a93.731,93.731,0,0,1-17.71272,5.459c1.08406-2.11,2.15842-4.22006,3.24248-6.3301l-12.86349,7.782c-2.48753.242-4.99444.38718-7.5013.43557-7.298.12583-14.74117-.63886-21.41988-3.55221-6.68817-2.9231-12.56344-8.2176-14.98321-15.09941a19.56891,19.56891,0,0,1-1.08394-6.93021Q416.48756,403.79818,425.35848,401.89139Z" transform="translate(-314.88908 -114.65201)" fill="black"/><path d="M593.99349,785.04066l-275.75.30733a1.19068,1.19068,0,1,1,0-2.38137l275.75-.30733a1.19068,1.19068,0,0,1,0,2.38137Z" transform="translate(-314.88908 -114.65201)" fill="#cacaca"/></svg>