<svg xmlns="http://www.w3.org/2000/svg" width="742.418" height="712.575" viewBox="0 0 742.418 712.575" xmlns:xlink="http://www.w3.org/1999/xlink">
  <g id="Group_29" data-name="Group 29" transform="translate(-245 -109)">
    <path id="Path_339-4395" data-name="Path 339" d="M825.818,262.524h-3.9V155.547A61.915,61.915,0,0,0,760,93.632H533.353a61.915,61.915,0,0,0-61.916,61.916V742.43a61.915,61.915,0,0,0,61.915,61.915H760a61.915,61.915,0,0,0,61.915-61.915V338.672h3.9Z" transform="translate(-147.004 15.369)" fill="black"/>
    <path id="Path_340-4396" data-name="Path 340" d="M808.736,150.925V746.1a46.959,46.959,0,0,1-46.942,46.952h-231.3A46.966,46.966,0,0,1,483.521,746.1V150.925a46.965,46.965,0,0,1,46.971-46.951H558.55a22.329,22.329,0,0,0,20.656,30.74H711.074a22.329,22.329,0,0,0,20.656-30.74h30.055a46.959,46.959,0,0,1,46.951,46.942Z" transform="translate(-146.449 15.843)" fill="#333"/>
    <g id="Group_26" data-name="Group 26" transform="translate(402.822 206.2)">
      <g id="Group_27" data-name="Group 27" transform="translate(17.768 55.394)"></g>
    </g>
    
    <g id="Group_28" data-name="Group 28" transform="translate(650.282 333.482)">
      <path id="Path_409-4409" data-name="Path 409" d="M616.354,733.283H603.9l-5.924-48.033h18.379Z" transform="translate(-579.376 -258.561)" fill="#feb8b8"/>
      <path id="Path_410-4410" data-name="Path 410" d="M781.847,821.454H741.693v-.508a15.63,15.63,0,0,1,15.628-15.629h24.527Z" transform="translate(-741.693 -334.661)" fill="#2f2e41"/>
      <path id="Path_411-4411" data-name="Path 411" d="M764.825,725.426,752.7,728.28l-16.778-45.4,17.89-4.213Z" transform="translate(-573.145 -258.858)" fill="#feb8b8"/>
      <path id="Path_412-4412" data-name="Path 412" d="M932.408,812.63l-39.085,9.2-.116-.494a15.63,15.63,0,0,1,11.63-18.8h0l23.872-5.621Z" transform="translate(-734.869 -335.04)" fill="#2f2e41"/>
      <path id="Path_413-4413" data-name="Path 413" d="M775.572,619.007c.024-2.5.765-61.577,16.958-83.913l.239-.33L849.2,542.55l-1.262,12.4c2.482,2.414,22.006,22.816,27.644,71.128l59.9,160.867-27.845,2.531L825.205,613.867l-43.62,190.884h-27.6Z" transform="translate(-741.138 -346.881)" fill="black"/>
      <path id="Path_414-4414" data-name="Path 414" d="M784.539,541.411l5.516-28.96c-1.08-1.39-5.865-8.065-4.8-15.89.695-5.105,3.742-9.582,9.059-13.309l14.3-33.362.193-.113c.963-.567,23.728-13.731,36.139-1.311.31.24,30.867,24.5,18.6,57.218l-15.148,45.45Z" transform="translate(-739.758 -351.018)" fill="#ccc"/>
      <path id="Path_415-4415" data-name="Path 415" d="M766.675,576.428a10.241,10.241,0,0,0,8.649-13.106l29.527-21.273-17.676-6.723-25.329,21.232a10.3,10.3,0,0,0,4.829,19.871Z" transform="translate(-741.086 -346.855)" fill="#feb8b8"/>
      <path id="Path_416-4416" data-name="Path 416" d="M771.369,546.127l45.078-35.516-13.4-45.787a16.451,16.451,0,0,1,1.661-13.02,15.216,15.216,0,0,1,9.977-7.2c7.717-1.633,14.722,2.688,20.817,12.845l.047.092c1.008,2.465,24.492,60.516,6.561,72.931-17.541,12.143-58.215,29.821-58.624,30l-.477.206Z" transform="translate(-740.353 -350.968)" fill="#ccc"/>
      <circle id="Ellipse_66" data-name="Ellipse 66" cx="27.308" cy="27.308" r="27.308" transform="translate(63.619 30.758)" fill="#feb8b8"/>
      <circle id="Ellipse_67" data-name="Ellipse 67" cx="24.158" cy="24.158" r="24.158" transform="translate(109.58)" fill="#2f2e41"/>
      <path id="Path_417-4417" data-name="Path 417" d="M891.2,398.231A24.16,24.16,0,0,1,853.9,385.546a24.16,24.16,0,1,0,47.126-9.907A24.151,24.151,0,0,1,891.2,398.231Z" transform="translate(-736.626 -354.068)" fill="#2f2e41"/>
      <path id="Path_418-4418" data-name="Path 418" d="M798.37,398.1c4.217-7.55,5.831-10.7,11.269-15.3,4.809-4.061,10.724-5.253,15.495-1.406a28.737,28.737,0,1,1-17.044,23C803.942,403.815,802.517,398.686,798.37,398.1Z" transform="translate(-739.134 -353.913)" fill="#2f2e41"/>
    </g>
   </g>
</svg>