<svg xmlns="http://www.w3.org/2000/svg" data-name="Layer 1" width="832.71307" height="682.99318" viewBox="0 0 832.71307 682.99318" xmlns:xlink="http://www.w3.org/1999/xlink">
<path d="M295.24569,266.58867c-22.27636.0091-31.8457,32.2641-53.6455,36.84772-9.73633,2.04718-19.67041-2.0282-29.61817-2.20453-9.94775-.17627-21.84668,7.04682-19.74463,16.77155l189.64991-2.85913a87.23441,87.23441,0,0,1-52.02051-24.43665C319.588,280.48516,309.74179,266.58269,295.24569,266.58867Z" 
transform="translate(-183.64347 -108.50341)" fill="#f0f0f0"/>
<path d="M730.235,605.00292A117.10395,117.10395,0,0,1,614.7413,507.18749l-.03735-.22559.146-.17578a113.068,113.068,0,0,0,17.94971-29.87207,76.14418,76.14418,0,0,1-18.72754,17.12842l-.73389.48926-.04272-.88135c-.09351-1.93945-.14111-3.8667-.14111-5.72754a116.41689,116.41689,0,0,1,55.21533-99.41162,164.59373,164.59373,0,0,1-46.07422-114.54c0-91.23926,74.24341-165.46777,165.501-165.46777A165.23864,165.23864,0,0,1,944.92441,221.896l.14746.44482-.43433.17578c-11.26758,4.562-21.63794,6.75391-31.55664,6.647a113.01521,113.01521,0,0,0,34.77954,4.20508l.40381-.01367.0979.39209a166.11019,166.11019,0,0,1,4.93481,40.22412q0,.73389-.00634,1.4668a75.0366,75.0366,0,0,0,24.78076,55.94678,117.0658,117.0658,0,0,1-5.4624,177.85351l-.23975.19287-.28027-.127c-17.30957-7.854-29.36451-16.62109-37.5752-27.38477a114.79108,114.79108,0,0,0,23.8457,36.43018l.4441.458-.55079.32178a117.176,117.176,0,0,1-115.53222,1.37451A117.50883,117.50883,0,0,1,730.235,605.00292Z" transform="translate(-183.64347 -108.50341)" fill="#536dfe"/>
<path d="M688.52372,791.49659a2.12713,2.12713,0,0,1-2.10336-1.82741c-.09036-.635-8.94263-64.47862-.9923-149.32949,7.34218-78.3618,30.92087-191.23038,101.5534-283.92753a2.12731,2.12731,0,1,1,3.38407,2.57873C720.343,450.88755,696.95444,562.928,689.664,640.73647c-7.90411,84.35714.87873,147.7029.96841,148.333a2.129,2.129,0,0,1-2.10872,2.42708Z" transform="translate(-183.64347 -108.50341)" fill="#3f3d56"/>
<path d="M723.83271,478.98352a2.12723,2.12723,0,0,1-1.25231-3.848c.25638-.18628,26.09578-18.80451,64.72531-32.94874,35.71011-13.07369,90.01265-24.92588,145.91617-7.13375a2.127,2.127,0,1,1-1.29006,4.05367c-54.75818-17.4265-108.07639-5.77028-143.16328,7.07558-38.07816,13.942-63.43526,32.212-63.687,32.39477A2.11885,2.11885,0,0,1,723.83271,478.98352Z" transform="translate(-183.64347 -108.50341)" fill="#3f3d56"/>
<path d="M832.12817,791.14685h-647.294a1.19069,1.19069,0,0,1,0-2.38137h647.294a1.19069,1.19069,0,0,1,0,2.38137Z" transform="translate(-183.64347 -108.50341)" fill="#cacaca"/><path d="M497.86679,166.70763c-10.27881-10.22247-20.125-24.12494-34.6211-24.119-22.27636.0091-31.8457,32.2641-53.6455,36.84772-9.73633,2.04718-19.67041-2.0282-29.61817-2.20453-9.94775-.17627-21.84668,7.04682-19.74463,16.77155l189.64991-2.85913A87.23441,87.23441,0,0,1,497.86679,166.70763Z" transform="translate(-183.64347 -108.50341)" fill="#f0f0f0"/><path d="M920.24569,124.05382c-22.27636.0091-31.8457,32.2641-53.6455,36.84772-9.73633,2.04718-19.67041-2.0282-29.61817-2.20453-9.94775-.17627-21.84668,7.04682-19.74463,16.77155l189.64991-2.85913a87.23441,87.23441,0,0,1-52.02051-24.43665C944.588,137.95031,934.74179,124.04784,920.24569,124.05382Z" 
transform="translate(-183.64347 -108.50341)" fill="#f0f0f0"/></svg>